<svg viewBox="0 0 400 400" xmlns="http://www.w3.org/2000/svg">
  <defs>
    <linearGradient id="iso-blue-top" x1="0%" y1="0%" x2="0%" y2="100%">
      <stop offset="0%" style="stop-color:#60a5fa;stop-opacity:1" />
      <stop offset="100%" style="stop-color:#3b82f6;stop-opacity:1" />
    </linearGradient>
    <linearGradient id="iso-blue-side" x1="0%" y1="0%" x2="100%" y2="0%">
      <stop offset="0%" style="stop-color:#1e40af;stop-opacity:1" />
      <stop offset="100%" style="stop-color:#2563eb;stop-opacity:1" />
    </linearGradient>
    <linearGradient id="iso-green-top" x1="0%" y1="0%" x2="0%" y2="100%">
      <stop offset="0%" style="stop-color:#34d399;stop-opacity:1" />
      <stop offset="100%" style="stop-color:#10b981;stop-opacity:1" />
    </linearGradient>
    <linearGradient id="iso-green-side" x1="0%" y1="0%" x2="100%" y2="0%">
      <stop offset="0%" style="stop-color:#047857;stop-opacity:1" />
      <stop offset="100%" style="stop-color:#059669;stop-opacity:1" />
    </linearGradient>
    <radialGradient id="iso-pivot">
      <stop offset="0%" style="stop-color:#fbbf24;stop-opacity:1" />
      <stop offset="70%" style="stop-color:#f97316;stop-opacity:1" />
      <stop offset="100%" style="stop-color:#ea580c;stop-opacity:1" />
    </radialGradient>
  </defs>

  <rect width="400" height="400" fill="transparent"/>

  <!-- Main balance beam -->
  <g>
    <ellipse cx="200" cy="215" rx="135" ry="5" fill="#000000" opacity="0.4"/>
    <path d="M 65 208 L 335 208 L 335 213 L 65 213 Z" fill="#1e40af"/>
    <path d="M 65 202 L 335 202 L 335 208 L 65 208 Z" fill="#3b82f6"/>
    <path d="M 65 202 L 65 213 L 70 213 L 70 202 Z" fill="#2563eb"/>
  </g>

  <!-- Center pivot -->
  <g transform="translate(200, 202)">
    <ellipse cx="0" cy="20" rx="18" ry="5" fill="#000000" opacity="0.5"/>
    <path d="M -13,10 L 0,15 L 13,10 L 0,5 Z" fill="#ea580c"/>
    <path d="M -13,-8 L -13,10 L 0,15 L 0,-3 Z" fill="url(#iso-pivot)"/>
    <path d="M 13,-8 L 13,10 L 0,15 L 0,-3 Z" fill="#f97316"/>
    <path d="M -13,-8 L 0,-13 L 13,-8 L 0,-3 Z" fill="#fbbf24"/>
    <circle cx="-4" cy="-9" r="2.5" fill="#fef3c7" opacity="0.7"/>
  </g>

  <!-- Left server -->
  <g transform="translate(105, 125)">
    <ellipse cx="0" cy="85" rx="40" ry="10" fill="#000000" opacity="0.4"/>
    <path d="M -33,62 L 0,77 L 33,62 L 0,47 Z" fill="#1e40af"/>
    <path d="M -33,0 L -33,62 L 0,77 L 0,15 Z" fill="url(#iso-blue-side)"/>
    <path d="M 33,0 L 33,62 L 0,77 L 0,15 Z" fill="#2563eb"/>
    <path d="M -33,0 L 0,-15 L 33,0 L 0,15 Z" fill="url(#iso-blue-top)"/>
    <rect x="-30" y="10" width="27" height="4" fill="#93c5fd" opacity="0.7"/>
    <rect x="-30" y="19" width="27" height="4" fill="#93c5fd" opacity="0.5"/>
    <rect x="-30" y="28" width="20" height="4" fill="#93c5fd" opacity="0.7"/>
    <rect x="-30" y="37" width="25" height="4" fill="#93c5fd" opacity="0.5"/>
    <rect x="-30" y="46" width="27" height="4" fill="#93c5fd" opacity="0.7"/>
    <circle cx="-25" cy="54" r="2.5" fill="#10b981"/>
    <circle cx="-18" cy="54" r="2.5" fill="#10b981"/>
    <rect x="-2" y="77" width="4" height="8" fill="#1e40af"/>
  </g>

  <!-- Right server -->
  <g transform="translate(295, 140)">
    <ellipse cx="0" cy="78" rx="40" ry="10" fill="#000000" opacity="0.4"/>
    <path d="M -33,56 L 0,71 L 33,56 L 0,41 Z" fill="#047857"/>
    <path d="M -33,0 L -33,56 L 0,71 L 0,15 Z" fill="url(#iso-green-side)"/>
    <path d="M 33,0 L 33,56 L 0,71 L 0,15 Z" fill="#059669"/>
    <path d="M -33,0 L 0,-15 L 33,0 L 0,15 Z" fill="url(#iso-green-top)"/>
    <rect x="-30" y="10" width="27" height="4" fill="#6ee7b7" opacity="0.7"/>
    <rect x="-30" y="19" width="27" height="4" fill="#6ee7b7" opacity="0.5"/>
    <rect x="-30" y="28" width="22" height="4" fill="#6ee7b7" opacity="0.7"/>
    <rect x="-30" y="37" width="27" height="4" fill="#6ee7b7" opacity="0.5"/>
    <rect x="-30" y="46" width="27" height="4" fill="#6ee7b7" opacity="0.7"/>
    <circle cx="-25" cy="48" r="2.5" fill="#10b981"/>
    <circle cx="-18" cy="48" r="2.5" fill="#10b981"/>
    <rect x="-2" y="71" width="4" height="8" fill="#047857"/>
  </g>

  <!-- VARIATION 2: Multiple staggered dots like data stream -->
  <g>
    <path d="M 120 230 Q 200 220 280 230" fill="none" stroke="#f97316" stroke-width="4" stroke-linecap="round" opacity="0.4"/>

    <!-- Three dots on top path -->
    <circle r="7" fill="#fbbf24">
      <animateMotion dur="2.5s" repeatCount="indefinite" path="M 120 230 Q 200 220 280 230"/>
    </circle>
    <circle r="7" fill="#fb923c">
      <animateMotion dur="2.5s" begin="0.8s" repeatCount="indefinite" path="M 120 230 Q 200 220 280 230"/>
    </circle>
    <circle r="7" fill="#f97316">
      <animateMotion dur="2.5s" begin="1.6s" repeatCount="indefinite" path="M 120 230 Q 200 220 280 230"/>
    </circle>
    <path d="M 272 225 L 283 230 L 272 235 Z" fill="#f97316"/>

    <path d="M 280 255 Q 200 265 120 255" fill="none" stroke="#f97316" stroke-width="4" stroke-linecap="round" opacity="0.4"/>

    <!-- Three dots on bottom path -->
    <circle r="7" fill="#fbbf24">
      <animateMotion dur="2.5s" repeatCount="indefinite" path="M 280 255 Q 200 265 120 255"/>
    </circle>
    <circle r="7" fill="#fb923c">
      <animateMotion dur="2.5s" begin="0.8s" repeatCount="indefinite" path="M 280 255 Q 200 265 120 255"/>
    </circle>
    <circle r="7" fill="#f97316">
      <animateMotion dur="2.5s" begin="1.6s" repeatCount="indefinite" path="M 280 255 Q 200 265 120 255"/>
    </circle>
    <path d="M 128 250 L 117 255 L 128 260 Z" fill="#f97316"/>
  </g>
</svg>
