<svg xmlns="http://www.w3.org/2000/svg" viewBox="0 0 240 240" fill="none">
  <defs>
    <linearGradient id="fBlue" x1="0%" y1="0%" x2="100%" y2="100%">
      <stop offset="0%" stop-color="#1e3a8a"/>
      <stop offset="100%" stop-color="#2563eb"/>
    </linearGradient>
  </defs>
  <g transform="translate(120,120)">
    <line x1="0" y1="-36" x2="0" y2="-52" stroke="#1e40af" stroke-width="2" opacity="0.2"/><line x1="31" y1="-18" x2="45" y2="-26" stroke="#1e40af" stroke-width="2" opacity="0.2"/><line x1="31" y1="18" x2="45" y2="26" stroke="#1e40af" stroke-width="2" opacity="0.2"/><line x1="0" y1="36" x2="0" y2="52" stroke="#1e40af" stroke-width="2" opacity="0.2"/><line x1="-31" y1="18" x2="-45" y2="26" stroke="#1e40af" stroke-width="2" opacity="0.2"/><line x1="-31" y1="-18" x2="-45" y2="-26" stroke="#1e40af" stroke-width="2" opacity="0.2"/>
    <polygon points="0,-36 31,-18 31,18 0,36 -31,18 -31,-18" fill="url(#fBlue)"/>
    <line x1="-11" y1="-9" x2="11" y2="-9" stroke="white" stroke-width="2.5" stroke-linecap="round"/><line x1="0" y1="-9" x2="0" y2="6" stroke="white" stroke-width="2" opacity="0.9"/><polygon points="0,6 -5,13 5,13" fill="white" opacity="0.8"/><line x1="-11" y1="-9" x2="-11" y2="0" stroke="white" stroke-width="1.5" opacity="0.6"/><line x1="11" y1="-9" x2="11" y2="0" stroke="white" stroke-width="1.5" opacity="0.6"/><rect x="-15" y="0" width="8" height="2.5" rx="1" fill="white" opacity="0.5"/><rect x="7" y="0" width="8" height="2.5" rx="1" fill="white" opacity="0.5"/>
    <g transform="translate(0,-72)"><polygon points="0,-22 19,-11 19,11 0,22 -19,11 -19,-11" fill="#2563eb" fill-opacity="0.55" stroke="#2563eb" stroke-width="1.5"/><circle r="3" fill="white" opacity="0.7"/></g>
    <g transform="translate(62,-36)"><polygon points="0,-22 19,-11 19,11 0,22 -19,11 -19,-11" fill="#2563eb" fill-opacity="0.45" stroke="#2563eb" stroke-width="1.5"/><circle r="3" fill="white" opacity="0.7"/></g>
    <g transform="translate(62,36)"><polygon points="0,-22 19,-11 19,11 0,22 -19,11 -19,-11" fill="#2563eb" fill-opacity="0.3" stroke="#2563eb" stroke-width="1.5"/><circle r="3" fill="#fbbf24" opacity="0.9"/></g>
    <g transform="translate(0,72)"><polygon points="0,-22 19,-11 19,11 0,22 -19,11 -19,-11" fill="#2563eb" fill-opacity="0.4" stroke="#2563eb" stroke-width="1.5"/><circle r="3" fill="white" opacity="0.7"/></g>
    <g transform="translate(-62,36)"><polygon points="0,-22 19,-11 19,11 0,22 -19,11 -19,-11" fill="#2563eb" fill-opacity="0.5" stroke="#2563eb" stroke-width="1.5"/><circle r="3" fill="white" opacity="0.7"/></g>
    <g transform="translate(-62,-36)"><polygon points="0,-22 19,-11 19,11 0,22 -19,11 -19,-11" fill="#2563eb" fill-opacity="0.6" stroke="#2563eb" stroke-width="1.5"/><circle r="3" fill="white" opacity="0.7"/></g>
  </g>
</svg>
